<?xml version="1.0" encoding="UTF-8" standalone="no"?>
<svg
   xmlns:dc="http://purl.org/dc/elements/1.1/"
   xmlns:cc="http://creativecommons.org/ns#"
   xmlns:rdf="http://www.w3.org/1999/02/22-rdf-syntax-ns#"
   xmlns:svg="http://www.w3.org/2000/svg"
   xmlns="http://www.w3.org/2000/svg"
   version="1.0"
   width="96"
   height="91">
  <g transform="matrix(0.80057964,0,0,0.80232462,-1.0005387,1.9971517)">
    <path d="M 116.60324,25.186063 C 115.5624,21.097187 113.18394,17.657129 110.54187,14.436676 101.90557,5.2976846 89.035579,1.325145 77.423049,1.2499287 61.960528,2.0667875 48.021126,6.6617967 40.554931,19.561384 c -2.503801,4.134899 -3.220519,8.80347 -3.061927,13.561726 0.340033,5.854274 3.414948,11.001112 7.18616,15.311626 2.930303,3.186075 6.499921,5.578446 10.248087,7.687062 l 0,0.124993 -0.06249,0.749957 c -0.80193,4.445722 -2.435181,7.654051 -4.749114,11.124365 -0.415895,1.080545 -0.04285,1.723097 0.624884,2.562354 1.632881,1.135009 3.519993,0.19015 4.999069,-0.249979 5.981159,-2.194968 9.666869,-5.48086 13.934901,-9.749448 16.703355,1.867533 32.869809,-3.002442 41.867189,-13.936708 5.21181,-6.49595 6.64731,-14.108269 5.06155,-21.561269 z m -8.49843,17.998973 c -8.834659,10.530318 -24.185624,14.091846 -35.523418,12.811783 -3.168073,-0.423166 -5.34514,-0.209473 -6.718706,1.499918 -2.336376,2.47028 -5.236911,5.081216 -7.748554,6.31214 0.890913,-1.679928 1.22287,-3.548152 1.687185,-5.374693 0.678828,-3.364157 -0.07773,-5.56463 -2.624512,-6.812112 -4.245981,-2.172958 -7.827926,-5.25218 -10.810482,-8.93699 C 42.800444,37.30987 41.690149,32.432028 43.116927,26.24852 48.112617,12.203046 63.795765,6.6526027 77.423024,6.2496618 91.793335,6.6621707 106.19193,12.301282 111.72913,26.24852 c 1.74465,6.14187 -0.21342,11.819503 -3.62432,16.936516 z" fill="#6b7a99" />
    <path d="m 77.37765,16.249073 c 0.825869,-0.01676 1.273376,-0.613098 1.295166,-1.249929 0.0525,-0.643219 -0.498482,-1.249658 -1.363264,-1.249929 -8.645153,0.158752 -19.115112,3.328087 -24.069489,9.186979 -2.081976,2.450006 -3.086211,5.152229 -3.311882,8.312026 0.142368,0.827592 0.371948,1.183465 1.249767,1.249929 0.73507,-0.06206 1.159879,-0.454548 1.249767,-1.249929 -0.01807,-1.552036 0.494852,-2.926212 1.12479,-4.312254 1.204583,-2.061747 2.863617,-3.681047 4.686625,-5.187204 5.072019,-3.359087 10.415557,-4.94715 16.621898,-5.43719 z" fill="#6b7a99" />
    <path d="m 4.999067,30.935735 c -1.1326831,-0.004 -1.809766,0.401302 -2.6245102,1.124947 -0.8344318,0.761397 -1.0213183,1.544691 -1.124789,2.62485 l 0,7.499572 c 0.04296,1.287064 0.5138659,2.109333 1.437231,2.874836 1.0527342,0.80823 2.221875,0.874957 3.5618349,0.874957 l 0,49.997147 c -1.8977777,-0.04527 -2.7037522,0.0853 -3.8742769,1.124946 -0.8344318,0.761397 -1.0213183,1.544691 -1.124789,2.62485 l 0,7.49957 c 0.033114,1.1019 0.4087476,1.94097 1.1247893,2.62485 0.794371,0.73645 1.564131,1.06199 2.6245099,1.12495 l 7.4986,0 c 1.067697,-0.0867 2.011626,-0.43584 2.624511,-1.12494 0.988331,-1.14232 1.12479,-2.38937 1.12479,-3.87477 l 49.990669,0 0,1.24992 c 0.03312,1.1019 0.356339,1.78416 1.061914,2.53422 0.794372,0.76434 1.733549,1.14221 2.68739,1.21558 l 7.498601,0 c 1.067697,-0.0867 2.099025,-0.58918 2.82712,-1.34802 0.7011,-0.75654 0.906254,-1.38257 0.92218,-2.40177 l 0,-7.49957 c -0.0077,-0.881276 -0.450372,-1.874272 -0.951691,-2.361171 -0.777645,-0.90004 -2.885343,-1.328816 -4.087685,-1.388625 l 0,-30.935735 c -2.129716,-0.04503 -2.82196,-0.19922 -4.958761,-0.374982 l -0.74986,0.749957 0.74986,30.560756 -1.249767,0 c -1.206518,0.01826 -1.775522,0.370887 -2.62451,1.124946 -0.834431,0.761396 -1.021321,1.544692 -1.124795,2.62485 l 0,1.249924 -49.990669,0 C 16.239234,98.968601 16.102947,98.230721 15.12217,97.215552 14.187836,96.367981 12.97726,95.86411 11.247893,95.93206 l 0,-49.997147 c 1.887085,0.112979 3.062688,-0.384872 3.965074,-1.260836 0.988333,-1.142319 1.033993,-2.253476 1.033993,-3.738879 l 19.246407,0 -0.312441,-0.937446 -0.37493,-1.06244 -0.249954,-0.999943 -0.437418,-1.999885 -17.871664,0 0,-1.249929 c -0.07752,-0.937047 -0.394481,-1.560561 -0.874841,-2.312372 -0.798344,-1.00546 -1.663484,-1.245854 -2.874464,-1.437426 l -7.4986,0 z m 6.248834,9.999429 -4.9990673,0 0,-4.999714 4.9990673,0 z m -4.9990673,64.996296 0,-4.99972 4.9990673,0 0,4.99972 z m 64.9878703,-4.99972 4.999067,0 0,4.99972 -4.999067,0 z" fill="#999" />
    <path d="m 31.244168,50.934594 -9.998133,0 0,39.997717 9.998133,0 0,-39.997717 z" fill="#999" />
    <path d="m 46.241369,90.932311 0,-19.998858 -9.998134,0 0,19.998858 9.998134,0 z" fill="#999" />
    <path d="m 51.240436,74.933224 0,15.999087 9.998134,0 0,-18.74893 c -3.102221,1.45475 -6.546159,3.028203 -9.998134,2.749843 z" fill="#999" />
  </g>
</svg>
