<?xml version="1.0" encoding="UTF-8" standalone="no"?>
<svg
   xmlns:dc="http://purl.org/dc/elements/1.1/"
   xmlns:cc="http://creativecommons.org/ns#"
   xmlns:rdf="http://www.w3.org/1999/02/22-rdf-syntax-ns#"
   xmlns:svg="http://www.w3.org/2000/svg"
   xmlns="http://www.w3.org/2000/svg"
   version="1.1"
   width="114"
   height="70"
   viewBox="0 0 114 70">
  <g>
    <path d="m 108.14771,59.553165 c -0.40178,-0.265286 -7.68549,-5.021173 -18.522957,-7.357399 3.974885,-5.014755 6.527405,-11.758145 7.612444,-16.248747 1.506153,-6.221376 0.921737,-18.394566 -5.07926,-25.9808804 -3.508641,-4.4328378 -8.416011,-6.773342 -14.193558,-6.773342 -5.777549,0 -10.684919,2.3426436 -14.189262,6.7754814 -6.001,7.584175 -6.583267,19.757365 -5.079256,25.978741 1.085035,4.488463 3.635407,11.233992 7.612439,16.248747 -10.837467,2.334086 -18.121173,7.092113 -18.52081,7.357399 -1.463188,0.971287 -2.118507,2.785499 -1.607143,4.45851 0.507066,1.681569 2.062643,2.830427 3.822334,2.830427 h 55.929839 c 1.75969,0 3.31097,-1.148858 3.82234,-2.828287 0.51137,-1.67729 -0.14396,-3.491502 -1.60715,-4.46065 z M 62.309782,24.569687 c 1.089333,-8.510536 5.985961,-17.3997448 15.654597,-17.3997448 9.668636,0 14.567412,8.8913488 15.656745,17.4018848 1.183871,8.861397 -1.566319,18.135698 -7.133306,25.15935 l -0.65102,0.823669 c -4.763416,5.449053 -10.977126,5.449053 -15.738393,0 l -0.65317,-0.823669 C 63.882546,42.711804 61.121613,33.426805 62.309782,24.569687 z m -12.311398,38.29313 c 0.27502,-0.183988 7.043065,-4.60185 17.150014,-6.777621 l 4.961083,-1.067561 c 1.772584,1.157416 3.714906,1.880534 5.852749,1.880534 2.139992,0 4.080164,-0.720978 5.852748,-1.880534 l 4.961085,1.067561 c 10.027445,2.160795 16.771857,6.529451 17.150017,6.777621 H 49.998384 z" fill="#6b7a99" />
    <path d="m 17,46 c 1.753977,1.343083 5.216508,5.074918 7,6 2.223216,-0.685835 10.453778,-16.378739 13,-17 3.260562,2.128843 7.295706,7.953648 9.56699,8.174743 C 49.039045,41.356926 51.953122,34.666524 55,31 c 0.611663,7.607084 3.358108,14.698121 6,19.5 -4.174934,0.667071 -15.445549,5.808466 -17.5,9.5 -1.166516,2.131112 -0.991525,5.799782 0.5,7 C 30.168427,66.978734 13.699727,67.06383 1,67 3.7670763,62.567679 11.89343,51.82218 17,46 z" fill="#999" />
  </g>
</svg>