<?xml version="1.0" encoding="UTF-8" standalone="no"?>
<svg
   xmlns:dc="http://purl.org/dc/elements/1.1/"
   xmlns:cc="http://creativecommons.org/ns#"
   xmlns:rdf="http://www.w3.org/1999/02/22-rdf-syntax-ns#"
   xmlns:svg="http://www.w3.org/2000/svg"
   xmlns="http://www.w3.org/2000/svg"
   version="1.1"
   width="70"
   height="70">
  <g>
    <path d="M 31.96875,0 C 14.316666,0 0,14.321985 0,32 0,49.678013 14.316666,64 31.96875,64 38.839105,64 45.213546,61.817559 50.4375,58.125 48.445448,56.601644 46.455072,55.094835 44.53125,53.625 40.846438,55.764264 36.567578,57 32,57 18.192882,57 7,45.807119 7,32 7,18.192881 18.192882,7 32,7 c 13.807119,0 25,11.192881 25,25 0,4.567578 -1.235735,8.846438 -3.375,12.53125 1.53427,2.041584 3.084636,4.108969 4.46875,5.96875 C 61.807818,45.277509 64,38.89314 64,32 64,14.321985 49.620833,0 31.96875,0 z M 32,14 c -9.941126,0 -18,8.058876 -18,18 0,9.941125 8.058874,18 18,18 0.0105,0 0.02075,1.8e-5 0.03125,0 0.02783,-2.35861 0.05849,-4.820342 0.0625,-7 -0.03148,2.65e-4 -0.06221,0 -0.09375,0 -6.075132,0 -11,-4.924867 -11,-11 0,-6.075132 4.924868,-11 11,-11 6.075132,0 11,4.924868 11,11 0,0.02103 1.18e-4,0.0415 0,0.0625 2.383392,0.0077 4.729493,-0.01161 7,-0.03125 C 50.000018,32.02075 50,32.0105 50,32 50,22.058876 41.941127,14 32,14 z m 0,14 c -2.209139,0 -4,1.790861 -4,4 0,2.209139 1.790861,4 4,4 0.01048,0 0.02079,8e-5 0.03125,0 C 32.017076,35.171147 32.020913,34.443168 32,33.53125 31.981467,32.775456 32.621576,32.06261 33.375,32 c 0.04164,-0.0017 0.08336,-0.0017 0.125,0 0.808531,0.0059 1.673043,-0.0062 2.5,0 0,-2.209139 -1.79086,-4 -4,-4 z" fill="#999" />
    <path d="m 35,35 c 0.116579,6.202622 0.06429,11.657798 0,17.451158 1.901775,-1.856273 4.046711,-4.018149 5.98191,-5.712991 C 48.395276,52.348189 57.9444,59.829141 66,66 59.756778,57.875443 53.205782,49.669787 46.652261,40.993958 48.717551,38.692235 50.557882,36.813001 52.447236,35 46.936765,35.05585 40.458246,35.03957 35,35 z" fill="#6b7a99" />
  </g>
</svg>