<?xml version="1.0" encoding="UTF-8" standalone="no"?>
<svg
   xmlns:dc="http://purl.org/dc/elements/1.1/"
   xmlns:cc="http://creativecommons.org/ns#"
   xmlns:rdf="http://www.w3.org/1999/02/22-rdf-syntax-ns#"
   xmlns:svg="http://www.w3.org/2000/svg"
   xmlns="http://www.w3.org/2000/svg"
   version="1.1"
   width="80"
   height="80">
  <circle cx="40px" cy="40px" r="40px" fill="#6b7a99" />
  <path d="m 29.6875,22.84375 c -1.019814,0.116194 -2.064669,0.637914 -3.03125,1.53125 l -0.03125,0 0,0.03125 C 25.556214,25.475296 24.355125,26.611018 23.46875,28 c -0.886375,1.388982 -1.449691,3.105486 -1.09375,5 1.07267,5.709342 3.855646,9.394813 7.6875,14.28125 l 0,0.03125 0.03125,0 c 3.361084,3.866531 7.42828,6.587891 12,8.875 l 0.0625,0.03125 0.0625,0.03125 c 1.800438,0.69955 3.805058,1.580875 6.15625,1.53125 2.340676,-0.0494 4.864022,-1.132439 7.5,-3.90625 l 0,-0.03125 0.03125,0 c 1.703287,-1.605378 1.99494,-3.719786 1.375,-5.34375 -0.618329,-1.619745 -1.876424,-2.851786 -2.96875,-3.84375 -0.0051,-0.0046 0.0051,-0.02663 0,-0.03125 -0.0052,-0.0049 -0.026,0.0049 -0.03125,0 -0.897636,-0.833924 -2.169812,-1.876698 -3.75,-2.3125 -0.794719,-0.219176 -1.707452,-0.273607 -2.59375,0.03125 -0.886298,0.304857 -1.689726,0.963349 -2.3125,1.90625 -0.765013,1.161686 -1.563278,1.94507 -2.34375,2.15625 -0.766926,0.207515 -1.792217,0.04632 -3.4375,-1.34375 -0.02303,-0.0228 -0.0396,-0.03977 -0.0625,-0.0625 -2.187532,-2.170825 -3.793447,-4.030514 -5.5,-6.375 -0.618715,-0.843144 -0.703205,-1.385846 -0.5625,-1.84375 0.140705,-0.457904 0.623341,-1.045483 1.8125,-1.59375 L 35.65625,35.125 35.75,35.03125 C 37.394376,33.762731 38.103444,31.997457 37.90625,30.375 37.709056,28.752543 36.789173,27.333429 35.625,26.1875 L 35.59375,26.15625 C 34.975619,25.594801 33.932242,24.265912 32.40625,23.4375 31.643254,23.023294 30.707314,22.727556 29.6875,22.84375 z m 0.28125,2.5 c 0.411789,-0.04692 0.769879,0.03757 1.21875,0.28125 0.886778,0.481403 1.801747,1.533428 2.6875,2.34375 0.01095,0.01002 0.02031,0.02131 0.03125,0.03125 0.868839,0.867031 1.433472,1.883013 1.53125,2.6875 0.09913,0.815584 -0.103575,1.514722 -1.21875,2.375 -1.432021,0.718815 -2.51222,1.686439 -2.90625,2.96875 -0.41724,1.357845 0.03262,2.818434 0.9375,4.0625 0.0089,0.01219 0.02238,0.01908 0.03125,0.03125 1.784706,2.448161 3.495173,4.455972 5.78125,6.71875 l 0.03125,0.03125 0.03125,0.03125 c 2.053402,1.765778 4.054001,2.373609 5.78125,1.90625 1.727249,-0.467359 2.898971,-1.800288 3.8125,-3.1875 0.38681,-0.585644 0.746785,-0.797655 1.0625,-0.90625 0.315715,-0.108595 0.653548,-0.121404 1.09375,0 0.880404,0.242808 1.972884,1.05558 2.71875,1.75 l 0.03125,0 c 0.984165,0.891494 1.954872,2.000674 2.3125,2.9375 0.357628,0.936826 0.379674,1.578819 -0.78125,2.65625 L 54.125,52.09375 54.09375,52.125 c -2.341942,2.477038 -4.123041,3.121251 -5.78125,3.15625 -1.658209,0.035 -3.32735,-0.652249 -5.1875,-1.375 -4.330626,-2.176577 -8.041466,-4.693497 -11.09375,-8.1875 -3.819466,-4.870639 -6.221292,-8.013556 -7.1875,-13.15625 -0.223257,-1.188297 0.08075,-2.170008 0.75,-3.21875 0.662235,-1.037746 1.683802,-2.058438 2.75,-3.125 0.0113,-0.0113 0.01995,-0.01994 0.03125,-0.03125 0.65654,-0.594587 1.191405,-0.797908 1.59375,-0.84375 z" fill="#fff" />
  <path d="M 41.407694,24.390246 C 53.51242,21.813325 57.67142,31.182782 55.609754,39.131625 58.69947,34.403328 59.084585,29.737928 55.310132,25.169263 50.874986,20.236455 43.701829,21.824093 41.407694,24.390246 z" fill="#fff" />
  <path d="m 40.105631,28.819891 c 8.980356,-1.929536 13.288632,4.12177 11.028494,12.066388 2.399294,-3.870294 3.776989,-8.04865 0.246725,-11.608505 -3.803621,-3.438451 -9.25403,-2.618302 -11.275219,-0.457883 z" fill="#fff" />
  <path d="m 40.572281,32.727092 c 4.885785,-0.389802 7.374911,1.587504 6.447292,6.962236 2.061802,-1.866805 2.567586,-5.003767 0.503782,-7.216894 -2.223609,-2.137651 -5.46986,-1.388074 -6.951074,0.254658 z" fill="#fff" />
</svg>
