<?xml version="1.0" encoding="UTF-8" standalone="no"?>
<svg
   xmlns:dc="http://purl.org/dc/elements/1.1/"
   xmlns:cc="http://creativecommons.org/ns#"
   xmlns:rdf="http://www.w3.org/1999/02/22-rdf-syntax-ns#"
   xmlns:svg="http://www.w3.org/2000/svg"
   xmlns="http://www.w3.org/2000/svg"
   version="1.1"
   width="80"
   height="80">
  <circle cx="40px" cy="40px" r="40px" fill="#6b7a99" />
  <g transform="matrix(0.66781447,0,0,0.66781447,24,24)">
    <path d="m 46.599,46.599 c -1.758,1.758 -4.605,1.758 -6.363,0 L 32.295,38.658 C 29.028,40.749 25.167,42 21,42 9.402,42 0,32.598 0,21 0,9.402 9.402,0 21,0 c 11.598,0 21,9.402 21,21 0,4.167 -1.251,8.028 -3.342,11.295 l 7.941,7.941 c 1.758,1.758 1.758,4.605 0,6.363 z M 21,6 C 12.717,6 6,12.714 6,21 6,29.286 12.717,36 21,36 29.286,36 36,29.286 36,21 36,12.714 29.286,6 21,6 z" fill="#fff" />
  </g>
</svg>