<?xml version="1.0" encoding="UTF-8" standalone="no"?>
<svg
   xmlns:dc="http://purl.org/dc/elements/1.1/"
   xmlns:cc="http://creativecommons.org/ns#"
   xmlns:rdf="http://www.w3.org/1999/02/22-rdf-syntax-ns#"
   xmlns:svg="http://www.w3.org/2000/svg"
   xmlns="http://www.w3.org/2000/svg"
   version="1.1"
   width="80"
   height="80">
  <circle cx="40px" cy="40px" r="40px" fill="#6b7a99" />
  <path d="m 57.646208,51.417205 0.598,1.441 -1.441,0.527 c -0.07,0.047 -0.562,0.223 -1.477,0.527 -0.914,0.305 -2.121,0.639 -3.621,1.002 -1.5,0.364 -3.247,0.686 -5.238,0.967 -1.992,0.281 -4.113,0.422 -6.363,0.422 -2.25,-0.047 -4.365,-0.223 -6.346,-0.527 -1.981,-0.304 -3.721,-0.656 -5.221,-1.054 -1.5,-0.398 -2.702,-0.756 -3.604,-1.072 -0.903,-0.317 -1.401,-0.498 -1.494,-0.545 l -1.406,-0.562 0.633,-1.441 c 0.633,-1.477 1.406,-2.771 2.32,-3.885 0.914,-1.113 1.875,-2.057 2.883,-2.83 1.008,-0.773 2.039,-1.424 3.094,-1.951 1.055,-0.527 2.051,-0.932 2.988,-1.213 -0.399,-0.609 -0.756,-1.265 -1.072,-1.969 -0.316,-0.703 -0.575,-1.476 -0.773,-2.32 -0.199,-0.844 -0.352,-1.728 -0.457,-2.654 -0.105,-0.925 -0.158,-1.916 -0.158,-2.971 0.023,-1.71 0.357,-3.14 1.002,-4.289 0.644,-1.148 1.424,-2.045 2.338,-2.69 0.914,-0.645 1.881,-1.102 2.9,-1.371 1.02,-0.269 1.916,-0.392 2.689,-0.369 0.75,-0.023 1.635,0.112 2.654,0.405 1.02,0.293 1.98,0.768 2.883,1.424 0.902,0.656 1.664,1.564 2.285,2.724 0.621,1.16 0.92,2.608 0.896,4.342 0,1.054 -0.059,2.045 -0.176,2.97 -0.117,0.926 -0.287,1.805 -0.51,2.637 -0.223,0.832 -0.498,1.594 -0.826,2.285 -0.329,0.692 -0.703,1.342 -1.125,1.951 0.961,0.305 1.957,0.727 2.988,1.266 1.031,0.539 2.051,1.207 3.059,2.004 1.007,0.797 1.951,1.758 2.83,2.883 0.879,1.123 1.635,2.436 2.268,3.936 l 0,0 z m -17.262,-25.805 c -0.164,-0.023 -0.557,0.006 -1.178,0.088 -0.621,0.083 -1.278,0.305 -1.969,0.668 -0.692,0.364 -1.318,0.938 -1.881,1.723 -0.563,0.785 -0.844,1.869 -0.844,3.252 -0.024,1.149 0.035,2.21 0.176,3.182 0.141,0.973 0.346,1.863 0.615,2.672 0.269,0.809 0.603,1.512 1.002,2.109 0.398,0.598 0.855,1.096 1.371,1.494 l 2.531,1.828 2.602,-1.758 c 0.515,-0.398 0.978,-0.891 1.389,-1.477 0.41,-0.586 0.761,-1.289 1.055,-2.109 0.293,-0.82 0.515,-1.711 0.668,-2.672 0.152,-0.961 0.228,-2.016 0.228,-3.164 0.023,-1.383 -0.241,-2.473 -0.791,-3.27 -0.551,-0.796 -1.172,-1.382 -1.863,-1.758 -0.692,-0.374 -1.348,-0.609 -1.969,-0.703 -0.621,-0.093 -1.001,-0.128 -1.142,-0.105 l 0,0 z m -0.246,27.668 c 1.523,0.023 2.994,-0.041 4.412,-0.194 1.418,-0.152 2.73,-0.339 3.938,-0.562 1.207,-0.223 2.297,-0.463 3.27,-0.721 0.972,-0.258 1.787,-0.48 2.443,-0.668 -0.68,-1.242 -1.459,-2.29 -2.338,-3.146 -0.879,-0.855 -1.799,-1.587 -2.76,-2.197 -0.961,-0.609 -1.94,-1.09 -2.936,-1.442 -0.996,-0.351 -1.94,-0.633 -2.83,-0.844 l -3.129,-0.633 -3.129,0.597 c -0.891,0.188 -1.834,0.452 -2.83,0.791 -0.996,0.34 -1.981,0.803 -2.953,1.388 -0.973,0.586 -1.905,1.301 -2.795,2.145 -0.891,0.844 -1.688,1.875 -2.391,3.094 0.633,0.188 1.435,0.422 2.408,0.703 0.972,0.281 2.068,0.539 3.287,0.773 1.219,0.235 2.531,0.446 3.938,0.633 1.407,0.19 2.871,0.283 4.395,0.283 l 0,0 z" fill="#fff" />
</svg>