<?xml version="1.0" encoding="UTF-8" standalone="no"?>
<svg
   xmlns:dc="http://purl.org/dc/elements/1.1/"
   xmlns:cc="http://creativecommons.org/ns#"
   xmlns:rdf="http://www.w3.org/1999/02/22-rdf-syntax-ns#"
   xmlns:svg="http://www.w3.org/2000/svg"
   xmlns="http://www.w3.org/2000/svg"
   version="1.1"
   width="64"
   height="64"
   viewBox="0 0 64 64"
   xml:space="preserve">
<g transform="matrix(1.5,0,0,1.5,8.931,10.0165)" fill="#6b7a99">
  <path d="m 31.965,15.776 c -0.01,-0.042 -0.004,-0.087 -0.02,-0.128 -0.006,-0.017 -0.021,-0.026 -0.027,-0.042 -0.01,-0.024 -0.008,-0.051 -0.021,-0.074 -2.9,-5.551 -9.213,-9.528 -15.873,-9.528 -6.661,0 -12.973,3.971 -15.875,9.521 -0.013,0.023 -0.011,0.05 -0.021,0.074 -0.007,0.016 -0.021,0.025 -0.027,0.042 -0.016,0.041 -0.01,0.086 -0.02,0.128 -0.018,0.075 -0.035,0.147 -0.035,0.224 0,0.077 0.018,0.148 0.035,0.224 0.01,0.042 0.004,0.087 0.02,0.128 0.006,0.017 0.021,0.026 0.027,0.042 0.01,0.024 0.008,0.051 0.021,0.074 2.901,5.551 9.214,9.528 15.875,9.528 6.66,0 12.973,-3.971 15.873,-9.521 0.014,-0.023 0.012,-0.05 0.021,-0.074 0.006,-0.016 0.021,-0.025 0.027,-0.042 0.016,-0.041 0.01,-0.086 0.02,-0.128 C 31.982,16.148 32,16.076 32,16 32,15.924 31.982,15.851 31.965,15.776 z m -15.942,8.212 c -5.615,0 -11.112,-3.191 -13.851,-7.995 2.754,-4.81 8.243,-7.99 13.851,-7.99 5.613,0 11.111,3.192 13.85,7.995 -2.754,4.811 -8.242,7.99 -13.85,7.99 z" />
  <path d="m 16.023,11.999 c -0.002,0 -0.004,10e-4 -0.006,10e-4 -2.205,0.004 -3.992,1.791 -3.992,3.996 0,0.276 0.224,0.5 0.5,0.5 0.275,0 0.499,-0.224 0.499,-0.5 0,-1.652 1.345,-2.997 2.999,-2.997 v -0.001 c 0.275,0 0.498,-0.224 0.498,-0.499 0,-0.277 -0.222,-0.5 -0.498,-0.5 z" />
  <path d="m 16,9 c -3.867,0 -7,3.134 -7,7 0,3.866 3.134,7 7,7 3.865,0 7,-3.135 7,-7 0,-3.867 -3.135,-7 -7,-7 z m 0,13 c -3.309,0 -6,-2.691 -6,-6 0,-3.309 2.691,-6 6,-6 3.309,0 6,2.691 6,6 0,3.309 -2.691,6 -6,6 z" />
</g>
</svg>