<?xml version="1.0" encoding="UTF-8" standalone="no"?>
<svg
   xmlns:dc="http://purl.org/dc/elements/1.1/"
   xmlns:cc="http://creativecommons.org/ns#"
   xmlns:rdf="http://www.w3.org/1999/02/22-rdf-syntax-ns#"
   xmlns:svg="http://www.w3.org/2000/svg"
   xmlns="http://www.w3.org/2000/svg"
   version="1.1"
   width="64"
   height="64"
   viewBox="0 0 64 64"
   xml:space="preserve">
<g transform="translate(0,2)" fill="#6b7a99">
  <path d="m 32.063,35.994 c -0.876,0 -2.168,-0.096 -3.353,-0.551 L 19.229,31.79 h -4.644 v 5.689 c 0,1.749 1.301,3.734 2.905,4.431 l 11.48,4.997 c 1.604,0.697 4.208,0.7 5.814,0.007 l 11.605,-5.011 c 1.605,-0.693 2.907,-2.675 2.907,-4.424 V 31.79 h -5.125 l -8.402,3.542 c -1.01,0.427 -2.328,0.662 -3.706,0.662 z" />
  <path d="m 6.419,24.364 22.862,8.809 c 1.633,0.628 4.263,0.587 5.875,-0.093 l 21.833,-9.203 v 13.578 l -1.349,4.501 h 3.901 l -1.396,-4.548 v -14.08 h -0.039 c 0.943,-0.65 0.723,-1.461 -0.673,-1.96 L 35.221,13.464 C 33.573,12.876 30.91,12.901 29.272,13.516 L 6.429,22.11 c -1.638,0.616 -1.642,1.626 -0.01,2.254 z" />
</g>
</svg>