<?xml version="1.0" encoding="UTF-8" standalone="no"?>
<svg
   xmlns:dc="http://purl.org/dc/elements/1.1/"
   xmlns:cc="http://creativecommons.org/ns#"
   xmlns:rdf="http://www.w3.org/1999/02/22-rdf-syntax-ns#"
   xmlns:svg="http://www.w3.org/2000/svg"
   xmlns="http://www.w3.org/2000/svg"
   version="1.1"
   width="64"
   height="64"
   viewBox="0 0 64 64"
   xml:space="preserve">
<g transform="matrix(1.5,0,0,1.5,7.9999449,7.99975)" fill="#6b7a99">
  <path d="m 31.415,10.586 -10,-10 C 20.072932,-0.38174897 18.628406,-0.43311689 18.089,1.408 16.797987,5.3286992 13.089965,7.4721355 9.997,9.27 5.5951963,11.765607 1.555587,14.806685 0.089,19.409 -0.13,20.12 0.061,20.889 0.585,21.415 l 10,10 c 1.544194,0.725655 2.782539,0.848159 3.326,-0.824 1.292917,-3.920074 5.000115,-6.063698 8.094,-7.859 4.400528,-2.498998 8.438265,-5.538432 9.907,-10.141 0.218,-0.71 0.026,-1.482 -0.497,-2.005 z M 12,30 C 8.688,26.688 5.312,23.311 2,20 4.842,10.799 17.16,11.201 20,2 23.312,5.311 26.689,8.688 30.002,12 27.159,21.199 14.841,20.799 12,30 z" />
  <path d="m 19.562,14.9 c -1.216423,-1.08042 -2.68136,-0.747498 -3.986,0.011 -0.537,-0.617 -1.074,-1.227 -1.611,-1.793 0.725595,-0.726228 1.415035,-0.563771 1.90668,-0.19206 0.64688,0.408376 1.320523,-0.57296 0.539425,-1.038127 C 15.596936,11.44399 14.428284,11.220389 13.14906,12.27732 13.08406,12.21532 12.966,12.124 12.901,12.063 c -0.343153,-0.347073 -0.940658,0.167308 -0.508,0.57 0.065,0.055 0.13,0.109 0.195,0.166 -0.930426,1.118972 -1.571137,2.733854 -0.239,3.836 1.236764,0.811801 2.628643,0.479192 3.743,-0.109 0.59,0.682 1.182,1.359 1.773,1.988 -0.559083,0.502643 -1.49099,0.577 -2.012,-0.082 -0.518239,-0.547806 -1.779434,0.403569 -0.831,1.161 1.068574,1.045853 2.822561,0.730735 3.71,-0.198 0.174,0.17 0.35,0.332 0.525,0.488 0.328508,0.325544 0.905875,-0.255808 0.512,-0.59 -0.176,-0.141 -0.352,-0.289 -0.527,-0.445 1.091109,-1.133948 1.402382,-2.865888 0.32,-3.948 z m -6.337,0.387 c -0.512065,-0.548986 -0.209373,-1.230209 0.227,-1.674 0.507,0.504 1.013,1.057 1.52,1.629 -0.679071,0.403168 -1.284738,0.548863 -1.747,0.045 z m 5.149,2.736 c -0.561,-0.566 -1.121,-1.188 -1.68,-1.826 0.69776,-0.388238 1.370611,-0.543863 1.894,-0.051 0.530043,0.617457 0.216285,1.284401 -0.214,1.877 z" />
  <path d="M 14.62272,22.272279 C 13.012915,23.425382 11.804131,24.953574 10.77,26.366 c -0.430908,0.555671 0.344058,1.257623 0.838817,0.555365 1.045383,-1.5106 2.427418,-2.956947 3.727183,-3.956365 0.501207,-0.353959 0.151906,-1.266654 -0.71328,-0.692721 z" />
  <path d="m 16.802739,9.0846152 c -0.570196,0.5022394 -0.08737,1.2411888 0.586,0.817 C 19.073724,8.5699436 20.049422,7.4059794 21.23,5.787 21.649148,5.0555402 20.715395,4.6164539 20.387323,5.1946461 19.334551,6.7663393 18.161841,8.0074796 16.802739,9.0846152 z" />
</g>
</svg>