<?xml version="1.0" encoding="UTF-8" standalone="no"?>
<svg
   xmlns:dc="http://purl.org/dc/elements/1.1/"
   xmlns:cc="http://creativecommons.org/ns#"
   xmlns:rdf="http://www.w3.org/1999/02/22-rdf-syntax-ns#"
   xmlns:svg="http://www.w3.org/2000/svg"
   xmlns="http://www.w3.org/2000/svg"
   version="1.1"
   width="103"
   height="103">
  <circle cx="51.5px" cy="51.5px" r="51.5px" fill="#fff" />
  <path d="m 69.768,76.5 c 0.351,0 0.677,-0.071 0.976,-0.211 0.298,-0.141 0.562,-0.326 0.791,-0.554 0.228,-0.229 0.413,-0.493 0.554,-0.791 0.14,-0.299 0.211,-0.624 0.211,-0.975 0,-0.914 -0.097,-1.863 -0.29,-2.848 -0.194,-0.984 -0.466,-1.978 -0.817,-2.98 -0.352,-1.002 -0.774,-2.004 -1.266,-3.006 -0.493,-1.002 -1.073,-1.978 -1.74,-2.927 -0.527,-0.773 -1.09,-1.503 -1.688,-2.188 -0.598,-0.685 -1.213,-1.309 -1.846,-1.872 -0.633,-0.562 -1.292,-1.081 -1.978,-1.556 -0.685,-0.475 -1.38,-0.887 -2.083,-1.239 0.281,-0.281 0.571,-0.58 0.87,-0.897 0.298,-0.316 0.58,-0.641 0.844,-0.975 0.264,-0.334 0.518,-0.685 0.765,-1.055 0.246,-0.369 0.475,-0.765 0.686,-1.187 0.351,-0.633 0.659,-1.292 0.923,-1.977 0.264,-0.685 0.483,-1.379 0.659,-2.083 0.176,-0.703 0.307,-1.432 0.396,-2.188 0.087,-0.755 0.132,-1.503 0.132,-2.241 0,-1.054 -0.088,-2.083 -0.264,-3.085 C 65.427,38.663 65.172,37.687 64.838,36.738 64.503,35.789 64.1,34.884 63.625,34.022 63.15,33.161 62.597,32.344 61.964,31.57 61.296,30.797 60.584,30.111 59.828,29.513 59.072,28.916 58.272,28.406 57.429,27.984 56.585,27.562 55.715,27.246 54.819,27.035 53.923,26.824 53,26.719 52.051,26.719 c -0.949,0 -1.872,0.105 -2.769,0.316 -0.897,0.211 -1.767,0.527 -2.61,0.949 -0.844,0.422 -1.644,0.932 -2.4,1.529 -0.756,0.598 -1.468,1.284 -2.136,2.057 -0.633,0.773 -1.186,1.591 -1.661,2.452 -0.475,0.862 -0.879,1.766 -1.213,2.716 -0.335,0.949 -0.589,1.925 -0.765,2.927 -0.176,1.002 -0.264,2.03 -0.264,3.085 0,0.738 0.044,1.486 0.132,2.241 0.087,0.756 0.219,1.486 0.396,2.188 0.176,0.704 0.396,1.398 0.659,2.083 0.264,0.686 0.571,1.345 0.923,1.977 0.211,0.422 0.439,0.818 0.686,1.187 0.246,0.369 0.501,0.721 0.765,1.055 0.264,0.335 0.545,0.659 0.844,0.975 0.298,0.317 0.588,0.616 0.87,0.897 -0.704,0.352 -1.397,0.765 -2.083,1.239 -0.686,0.475 -1.345,0.994 -1.978,1.556 -0.633,0.563 -1.248,1.187 -1.846,1.872 -0.598,0.686 -1.16,1.416 -1.688,2.188 -0.668,0.949 -1.248,1.925 -1.74,2.927 -0.493,1.002 -0.915,2.004 -1.266,3.006 -0.352,1.002 -0.625,1.996 -0.817,2.98 -0.193,0.984 -0.29,1.934 -0.29,2.848 0,0.351 0.07,0.677 0.211,0.975 0.14,0.298 0.325,0.562 0.554,0.791 0.228,0.228 0.492,0.413 0.791,0.554 0.298,0.14 0.624,0.211 0.975,0.211 h 35.437 l 0,0 z m -32.59,-5.063 c 0.14,-0.527 0.298,-1.054 0.475,-1.582 0.176,-0.527 0.386,-1.063 0.633,-1.609 0.246,-0.545 0.518,-1.081 0.817,-1.608 0.298,-0.527 0.624,-1.055 0.976,-1.582 0.527,-0.773 1.098,-1.485 1.714,-2.136 0.615,-0.65 1.247,-1.221 1.898,-1.714 0.65,-0.492 1.318,-0.905 2.004,-1.239 0.686,-0.334 1.362,-0.571 2.03,-0.712 0.316,-0.07 0.597,-0.184 0.844,-0.343 0.246,-0.158 0.457,-0.343 0.633,-0.554 0.175,-0.211 0.307,-0.457 0.395,-0.738 0.087,-0.281 0.132,-0.562 0.132,-0.843 v -1.846 c 0,-0.211 -0.026,-0.422 -0.079,-0.633 -0.053,-0.211 -0.132,-0.413 -0.237,-0.607 -0.105,-0.193 -0.237,-0.369 -0.396,-0.527 -0.158,-0.158 -0.343,-0.29 -0.554,-0.396 -0.774,-0.457 -1.477,-1.036 -2.109,-1.74 -0.633,-0.703 -1.178,-1.485 -1.635,-2.346 -0.457,-0.861 -0.809,-1.793 -1.055,-2.795 -0.246,-1.002 -0.369,-2.048 -0.369,-3.138 0,-1.511 0.228,-2.935 0.686,-4.271 0.456,-1.336 1.081,-2.496 1.872,-3.481 0.791,-0.984 1.722,-1.767 2.795,-2.346 1.072,-0.58 2.206,-0.87 3.401,-0.87 1.195,0 2.328,0.29 3.401,0.87 1.072,0.58 2.004,1.363 2.795,2.346 0.791,0.985 1.415,2.145 1.872,3.481 0.457,1.336 0.686,2.76 0.686,4.271 0,1.09 -0.124,2.136 -0.369,3.138 -0.246,1.002 -0.598,1.934 -1.055,2.795 -0.457,0.862 -1.002,1.644 -1.635,2.346 -0.633,0.704 -1.337,1.284 -2.109,1.74 -0.211,0.106 -0.396,0.238 -0.554,0.396 -0.158,0.158 -0.29,0.335 -0.396,0.527 -0.105,0.194 -0.185,0.396 -0.237,0.607 -0.053,0.211 -0.079,0.422 -0.079,0.633 v 1.846 c 0,0.282 0.044,0.563 0.132,0.843 0.087,0.282 0.219,0.527 0.396,0.738 0.176,0.211 0.387,0.396 0.633,0.554 0.246,0.159 0.527,0.273 0.844,0.343 0.667,0.141 1.345,0.378 2.03,0.712 0.686,0.335 1.353,0.747 2.004,1.239 0.65,0.493 1.283,1.064 1.898,1.714 0.615,0.651 1.186,1.363 1.714,2.136 0.351,0.527 0.676,1.055 0.976,1.582 0.298,0.527 0.571,1.064 0.817,1.608 0.246,0.546 0.456,1.081 0.633,1.609 0.176,0.527 0.334,1.054 0.475,1.582 H 37.178 l 0,0 z" fill="#6b7a99" />
  <path d="m 84.002,32.001 c -1.5,0 -2.911,0.188 -4.234,0.563 -1.323,0.375 -2.49,0.88 -3.5,1.516 -1.011,0.636 -1.808,1.375 -2.391,2.219 -0.584,0.844 -0.875,1.745 -0.875,2.703 0,0.063 0.016,0.125 0.047,0.188 0.031,0.062 0.067,0.115 0.109,0.156 0.042,0.042 0.094,0.078 0.156,0.109 0.063,0.032 0.125,0.047 0.188,0.047 0.063,0 0.125,-0.016 0.188,-0.047 0.062,-0.031 0.114,-0.067 0.156,-0.109 0.042,-0.041 0.078,-0.094 0.109,-0.156 0.031,-0.063 0.047,-0.125 0.047,-0.188 0,-0.792 0.27,-1.552 0.812,-2.281 0.542,-0.729 1.271,-1.37 2.188,-1.922 0.916,-0.552 1.979,-0.989 3.187,-1.312 1.208,-0.323 2.479,-0.484 3.813,-0.484 0.063,0 0.125,-0.016 0.188,-0.047 0.063,-0.031 0.114,-0.068 0.156,-0.109 0.042,-0.042 0.078,-0.094 0.109,-0.156 0.031,-0.062 0.047,-0.125 0.047,-0.188 0,-0.062 -0.016,-0.125 -0.047,-0.188 -0.031,-0.062 -0.068,-0.114 -0.109,-0.156 -0.042,-0.042 -0.094,-0.078 -0.156,-0.109 -0.063,-0.033 -0.125,-0.049 -0.188,-0.049 l 0,0 z m 0,-5 c 2.208,0 4.286,0.313 6.234,0.937 1.948,0.625 3.646,1.484 5.094,2.578 1.448,1.094 2.588,2.365 3.422,3.813 0.833,1.448 1.25,3.005 1.25,4.672 0,1.667 -0.417,3.224 -1.25,4.672 -0.833,1.448 -1.974,2.719 -3.422,3.813 -1.448,1.094 -3.146,1.953 -5.094,2.578 -1.948,0.625 -4.026,0.937 -6.234,0.937 -0.271,0 -0.537,-0.005 -0.797,-0.016 -0.261,-0.01 -0.516,-0.026 -0.766,-0.047 -0.25,-0.021 -0.505,-0.047 -0.766,-0.078 -0.261,-0.031 -0.516,-0.057 -0.766,-0.078 -0.167,0.208 -0.464,0.521 -0.891,0.937 -0.427,0.417 -0.948,0.844 -1.563,1.281 -0.615,0.438 -1.287,0.844 -2.016,1.219 -0.73,0.375 -1.49,0.635 -2.281,0.781 0,-0.021 -0.005,-0.026 -0.016,-0.016 C 74.129,54.995 74.109,55 74.077,55 c -0.031,0 -0.063,0 -0.094,0 -0.031,0 -0.058,0 -0.078,0 -0.125,0 -0.245,-0.026 -0.359,-0.078 -0.115,-0.052 -0.208,-0.114 -0.281,-0.188 -0.073,-0.073 -0.136,-0.167 -0.188,-0.281 -0.052,-0.114 -0.078,-0.234 -0.078,-0.359 0,-0.041 0,-0.072 0,-0.094 0,-0.02 0.005,-0.047 0.016,-0.078 0.01,-0.031 0.021,-0.063 0.031,-0.094 0.01,-0.032 0.016,-0.057 0.016,-0.078 0.146,-0.271 0.328,-0.583 0.547,-0.938 0.219,-0.354 0.432,-0.739 0.641,-1.156 0.208,-0.417 0.385,-0.849 0.531,-1.297 C 74.927,49.911 75,49.458 75,49 V 48.969 48.938 C 73.958,48.397 73.005,47.766 72.141,47.047 71.276,46.328 70.537,45.547 69.922,44.703 69.307,43.859 68.833,42.959 68.5,42 68.166,41.042 68,40.042 68,39 c 0,-1.667 0.416,-3.224 1.25,-4.672 0.833,-1.448 1.974,-2.719 3.422,-3.813 1.448,-1.094 3.146,-1.953 5.094,-2.578 1.95,-0.623 4.028,-0.936 6.236,-0.936 l 0,0 0,0 0,0 0,0 0,0 0,0 0,0 0,0 0,0 z m 0,22 c 1.938,0 3.755,-0.26 5.453,-0.781 1.698,-0.521 3.177,-1.234 4.438,-2.141 1.26,-0.906 2.26,-1.969 3,-3.188 0.739,-1.219 1.109,-2.515 1.109,-3.891 0,-1.375 -0.37,-2.672 -1.109,-3.891 -0.74,-1.219 -1.74,-2.281 -3,-3.188 -1.261,-0.906 -2.74,-1.619 -4.438,-2.14 C 87.757,29.261 85.939,29 84.002,29 c -1.937,0 -3.755,0.261 -5.453,0.781 -1.698,0.521 -3.177,1.234 -4.438,2.14 -1.261,0.907 -2.261,1.969 -3,3.188 -0.74,1.219 -1.109,2.516 -1.109,3.891 0,0.792 0.135,1.578 0.406,2.359 0.271,0.781 0.661,1.521 1.172,2.219 0.51,0.698 1.13,1.349 1.859,1.953 0.729,0.604 1.552,1.146 2.469,1.625 0.167,0.084 0.317,0.188 0.453,0.313 0.135,0.125 0.25,0.266 0.344,0.422 0.094,0.156 0.167,0.323 0.219,0.5 0.052,0.177 0.078,0.359 0.078,0.547 0,0.042 0,0.068 0,0.078 0,0.011 0,0.036 0,0.078 0,0.271 -0.021,0.531 -0.063,0.781 -0.042,0.25 -0.094,0.5 -0.156,0.75 -0.063,0.25 -0.136,0.495 -0.219,0.735 -0.083,0.24 -0.177,0.464 -0.281,0.672 0.354,-0.208 0.698,-0.432 1.031,-0.672 0.333,-0.24 0.63,-0.474 0.891,-0.703 0.26,-0.229 0.495,-0.448 0.703,-0.656 0.208,-0.208 0.364,-0.375 0.469,-0.5 0.083,-0.125 0.188,-0.229 0.312,-0.312 0.125,-0.083 0.25,-0.156 0.375,-0.219 0.125,-0.063 0.26,-0.11 0.406,-0.141 0.146,-0.031 0.292,-0.047 0.438,-0.047 0.021,0 0.047,0 0.078,0 0.031,0 0.057,0 0.078,0 0.021,0 0.042,0 0.063,0 0.02,0 0.052,0 0.094,0 0.229,0.042 0.458,0.078 0.688,0.109 0.229,0.031 0.463,0.052 0.703,0.062 0.239,0.011 0.474,0.021 0.703,0.031 0.229,0.012 0.458,0.017 0.687,0.017 l 0,0 0,0 0,0 z" fill="#999" />
</svg>